#!OML:ASF E:\Style6\Style6.ASF
:FULLY-SPECIFIED
:DEGREES
2429
root 0.556173 18.2779 -0.0225974 9.51563 -2.87722 -0.627609
lowerback 4.8379 -0.578768 1.46991
upperback -8.21414 -0.304699 3.33354
thorax -11.5325 -0.0961398 2.82621
lowerneck 7.1798 1.6502 2.65361
upperneck -25.6178 0.918948 -7.35075
head -9.12211 0.918378 -3.07161
rclavicle -2.05742e-014 2.3059e-014
rhumerus -25.7604 27.7828 -68.2323
rradius 103.513
rwrist -2.63812
rhand -40.5592 21.4696
rfingers 7.12502
rthumb -13.5068 -8.07243
lclavicle -2.05742e-014 2.3059e-014
lhumerus -35.9385 -28.6908 74.1219
lradius 113.358
lwrist 19.3368
lhand -33.2061 30.3291
lfingers 7.12502
lthumb -6.41317 60.212
rfemur -12.0892 11.6823 16.7925
rtibia 9.9325
rfoot -7.88178 -21.7089
rtoes 4.84792
lfemur -14.2628 -10.0198 -18.272
ltibia 15.9982
lfoot -3.1689 18.5692
ltoes -12.8286
2430
root 0.557264 18.2785 -0.0215886 9.50157 -2.88776 -0.591156
lowerback 4.89179 -0.589943 1.43118
upperback -8.21713 -0.322746 3.32551
thorax -11.5679 -0.101612 2.84333
lowerneck 7.18374 1.64358 2.66709
upperneck -25.4688 0.922655 -7.33665
head -9.07048 0.916524 -3.06482
rclavicle -1.09332e-015 -2.06736e-014
rhumerus -25.6516 27.8478 -67.8361
rradius 103.435
rwrist -2.35693
rhand -40.5655 21.3485
rfingers 7.12502
rthumb -13.5129 -8.19309
lclavicle -1.09332e-015 -2.06736e-014
lhumerus -35.8144 -28.7411 73.7695
lradius 112.955
lwrist 18.5249
lhand -33.4441 30.5009
lfingers 7.12502
lthumb -6.64291 60.3767
rfemur -12.0702 11.6809 16.7492
rtibia 9.92724
rfoot -7.80228 -21.711
rtoes 4.60797
lfemur -14.2682 -9.97519 -18.3256
ltibia 16.0004
lfoot -3.05432 18.5169
ltoes -13.1517
2431
root 0.557193 18.2784 -0.0198963 9.52022 -2.91881 -0.564264
lowerback 4.85737 -0.590793 1.39055
upperback -8.19825 -0.330193 3.32534
thorax -11.5245 -0.102115 2.86551
lowerneck 7.22773 1.66596 2.70367
upperneck -25.3893 0.955412 -7.37614
head -9.04826 0.932757 -3.08611
rclavicle -1.19271e-015 2.94201e-014
rhumerus -25.4574 27.8804 -67.3657
rradius 103.373
rwrist -2.17503
rhand -40.4858 21.3651
rfingers 7.12502
rthumb -13.4361 -8.18157
lclavicle -1.19271e-015 2.94201e-014
lhumerus -35.617 -28.7824 73.3488
lradius 112.61
lwrist 17.8081
lhand -33.5652 30.9006
lfingers 7.12502
lthumb -6.75984 60.7727
rfemur -12.1235 11.7004 16.7091
rtibia 9.98178
rfoot -7.82949 -21.695
rtoes 4.85357
lfemur -14.2775 -9.90623 -18.3675
ltibia 15.9849
lfoot -2.94627 18.4992
ltoes -13.8025
2432
root 0.558014 18.2784 -0.0190914 9.53101 -2.97216 -0.47941
lowerback 4.82768 -0.568983 1.29214
upperback -8.15772 -0.315342 3.30577
thorax -11.4596 -0.088108 2.8951
lowerneck 7.26961 1.66952 2.79621
upperneck -25.3593 0.956535 -7.46692
head -9.04359 0.934568 -3.13341
rclavicle -2.03754e-014 -7.95139e-016
rhumerus -25.1885 27.8461 -66.8636
rradius 103.273
rwrist -2.06149
rhand -40.354 21.2041
rfingers 7.12502
rthumb -13.309 -8.35093
lclavicle -2.03754e-014 -7.95139e-016
lhumerus -35.4241 -28.7856 72.8999
lradius 112.39
lwrist 17.173
lhand -33.2759 30.9729
lfingers 7.12502
lthumb -6.48058 60.8538
rfemur -12.2309 11.7293 16.5941
rtibia 10.1309
rfoot -7.95486 -21.6264
rtoes 5.20225
lfemur -14.2427 -9.93984 -18.4585
ltibia 15.9211
lfoot -3.04024 18.5687
ltoes -13.1981
2433
root 0.559415 18.2777 -0.0162618 9.55343 -2.98647 -0.455821
lowerback 4.78015 -0.56951 1.26016
upperback -8.12886 -0.321566 3.31055
thorax -11.397 -0.0887489 2.91695
lowerneck 7.20508 1.66958 2.82737
upperneck -25.2025 0.960773 -7.50043
head -8.97571 0.935089 -3.14472
rclavicle -8.84592e-015 -3.33958e-014
rhumerus -24.9181 27.8411 -66.3817
rradius 103.133
rwrist -1.97728
rhand -40.2406 20.7213
rfingers 7.12502
rthumb -13.1997 -8.84081
lclavicle -8.84592e-015 -3.33958e-014
lhumerus -35.2966 -28.7155 72.5001
lradius 112.156
lwrist 16.5742
lhand -32.9886 30.5805
lfingers 7.12502
lthumb -6.20316 60.4697
rfemur -12.3308 11.6782 16.5621
rtibia 10.2799
rfoot -8.07752 -21.5658
rtoes 5.36967
lfemur -14.2168 -9.92192 -18.4932
ltibia 15.8547
lfoot -3.06214 18.5837
ltoes -12.975
2434
root 0.559989 18.2772 -0.0129512 9.57921 -3.01041 -0.381559
lowerback 4.79437 -0.558662 1.17993
upperback -8.16545 -0.315015 3.29593
thorax -11.4472 -0.0788478 2.9469
lowerneck 7.17453 1.6378 2.79558
upperneck -24.9774 0.926081 -7.48132
head -8.8945 0.917929 -3.12195
rclavicle -2.28602e-015 1.03368e-014
rhumerus -24.8089 27.827 -65.9249
rradius 102.992
rwrist -1.94632
rhand -40.1624 20.6438
rfingers 7.12502
rthumb -13.1243 -8.92321
lclavicle -2.28602e-015 1.03368e-014
lhumerus -35.2496 -28.6237 72.1559
lradius 111.852
lwrist 16.0621
lhand -32.772 29.9404
lfingers 7.12502
lthumb -5.9941 59.8356
rfemur -12.424 11.674 16.4728
rtibia 10.4024
rfoot -8.10354 -21.5663
rtoes 5.47142
lfemur -14.2094 -9.89801 -18.5765
ltibia 15.8055
lfoot -3.13116 18.6039
ltoes -13.0239
2435
root 0.561069 18.2772 -0.00841686 9.59678 -3.04189 -0.354417
lowerback 4.80638 -0.530039 1.16666
upperback -8.19575 -0.277976 3.27744
thorax -11.4907 -0.0602818 2.93026
lowerneck 7.14791 1.59438 2.80422
upperneck -24.7911 0.871888 -7.49701
head -8.82806 0.891727 -3.11779
rclavicle 6.55989e-015 3.33958e-014
rhumerus -24.7107 27.8168 -65.4461
rradius 102.877
rwrist -1.99258
rhand -40.0425 20.6853
rfingers 7.12502
rthumb -13.0088 -8.88909
lclavicle 6.55989e-015 3.33958e-014
lhumerus -35.1635 -28.5862 71.764
lradius 111.459
lwrist 15.5768
lhand -32.5514 29.2445
lfingers 7.12502
lthumb -5.7811 59.1456
rfemur -12.4577 11.6401 16.442
rtibia 10.4576
rfoot -8.05064 -21.5067
rtoes 5.05236
lfemur -14.2228 -9.8595 -18.6163
ltibia 15.8097
lfoot -3.16976 18.6191
ltoes -13.2905
